<?xml version="1.0" encoding="utf-8"?>
<svg viewBox="72.4637 30.2444 257.0004 396.0001" width="257px" height="396px" xmlns="http://www.w3.org/2000/svg">
    <path d="M 433.048 605.936 C 433.048 605.46 433.728 603.963 434.544 602.669 C 435.36 601.376 436.585 599.403 437.264 598.245 C 439.305 594.774 450.051 572.86 450.051 572.111 C 450.051 571.702 450.663 570.341 451.411 568.98 C 452.159 567.618 452.772 566.258 452.772 565.85 C 452.772 565.441 453.248 564.148 453.792 562.991 C 455.084 560.132 456.785 555.436 457.873 551.625 C 458.349 549.924 459.165 547.338 459.777 545.839 C 463.993 534.406 468.687 512.695 470.455 496.497 C 471.952 483.361 472.087 462.876 470.863 450.353 C 469.367 435.856 465.354 415.098 462.77 408.7 C 462.429 407.748 461.545 405.162 460.865 402.916 C 459.437 397.947 457.805 393.455 456.512 390.529 C 455.968 389.372 455.492 388.078 455.492 387.67 C 455.492 387.262 454.812 385.629 454.064 384.063 C 453.248 382.429 452.023 379.775 451.207 378.073 C 450.459 376.373 449.643 374.535 449.371 373.99 C 449.099 373.446 448.487 372.221 448.011 371.268 C 447.535 370.315 446.786 368.954 446.447 368.206 C 444.202 363.782 440.938 357.861 440.257 356.975 C 439.781 356.431 439.033 355.138 438.489 354.117 C 438.013 353.028 437.332 352.211 436.993 352.211 C 436.72 352.211 436.448 351.599 436.448 350.918 C 436.448 350.17 436.176 349.489 435.904 349.353 C 435.292 349.149 431.007 342.819 431.007 342.206 C 431.007 341.866 428.627 338.871 425.906 335.673 C 425.362 335.06 424.886 334.312 424.886 334.107 C 424.886 333.767 414.548 320.768 412.712 318.726 C 412.1 318.114 410.127 315.868 408.223 313.69 C 401.354 305.591 377.89 282.791 376.529 282.791 C 376.189 282.791 375.645 282.178 375.236 281.43 C 374.828 280.681 374.081 280.069 373.537 280.069 C 372.993 280.069 372.516 279.796 372.516 279.524 C 372.516 278.843 359.73 268.498 358.913 268.498 C 358.505 268.498 358.234 268.226 358.234 267.954 C 358.234 267.682 356.397 266.116 354.152 264.551 C 348.643 260.672 348.575 259.174 353.881 261.42 C 355.377 262.033 357.485 262.781 358.573 263.122 C 360.818 263.666 367.96 266.184 370.136 267.137 C 370.883 267.409 373.808 268.703 376.597 269.86 C 384.351 273.194 388.907 275.304 391.424 276.598 C 392.036 277.006 394.28 278.095 396.321 279.116 C 398.361 280.069 401.626 281.77 403.463 282.791 C 405.366 283.88 407.815 285.241 408.904 285.785 C 410.059 286.398 412.032 287.555 413.324 288.372 C 414.616 289.12 416.317 290.141 417.065 290.55 C 420.33 292.387 424.546 295.314 424.75 295.79 C 424.886 296.13 425.227 296.403 425.566 296.403 C 426.179 296.403 434.816 301.916 436.38 303.277 C 436.925 303.753 438.897 305.182 440.801 306.475 C 442.705 307.836 444.542 309.266 444.814 309.811 C 445.086 310.287 445.766 310.695 446.311 310.695 C 446.786 310.695 447.331 310.968 447.467 311.239 C 447.602 311.58 449.439 313.146 451.615 314.711 C 453.724 316.344 455.492 317.91 455.492 318.249 C 455.492 318.59 455.9 318.862 456.376 318.862 C 456.852 318.862 457.737 319.406 458.349 320.087 C 458.961 320.7 459.913 321.584 460.389 321.993 C 472.835 331.929 493.851 352.483 506.842 367.457 C 515.071 376.984 514.119 375.76 517.996 380.932 C 519.628 383.11 521.193 384.88 521.533 384.88 C 521.873 384.88 522.144 385.288 522.144 385.764 C 522.144 386.309 522.757 387.262 523.505 387.942 C 524.254 388.623 524.865 389.44 524.865 389.78 C 524.865 390.12 525.545 391.141 526.43 392.026 L 527.926 393.66 L 531.667 389.304 C 533.707 386.853 535.612 384.88 535.883 384.88 C 536.156 384.88 536.427 384.403 536.427 383.859 C 536.427 383.315 537.04 382.566 537.788 382.157 C 538.536 381.749 539.148 381 539.148 380.456 C 539.148 379.98 539.352 379.435 539.692 379.299 C 540.509 378.959 544.589 373.446 544.589 372.697 C 544.589 372.357 544.997 371.744 545.474 371.472 C 545.95 371.2 547.378 369.226 548.67 367.184 C 549.962 365.142 551.186 363.305 551.459 363.101 C 551.662 362.896 552.411 361.876 553.023 360.718 C 553.635 359.629 554.791 357.588 555.607 356.294 C 559.484 349.897 569.754 329.683 569.754 328.459 C 569.754 328.05 570.366 326.757 571.114 325.532 C 571.862 324.307 572.475 322.878 572.475 322.402 C 572.475 321.857 572.882 320.496 573.426 319.338 C 574.447 317.092 576.691 310.355 579.14 302.188 C 584.581 284.152 587.437 264.007 587.437 244.337 C 587.437 235.626 585.738 212.418 584.989 211.261 C 584.785 210.92 584.921 210.648 585.261 210.648 C 585.601 210.648 586.282 211.465 586.758 212.554 C 588.049 215.276 593.626 230.998 594.239 233.788 C 594.51 235.081 595.259 237.532 595.803 239.233 C 601.244 255.703 605.325 278.707 606.549 300.146 C 608.113 326.553 605.189 353.981 598.252 379.095 C 594.987 390.937 593.355 395.974 590.157 404.141 C 589.41 406.114 588.798 408.019 588.798 408.497 C 588.798 408.905 588.185 410.402 587.505 411.899 C 586.826 413.329 585.397 416.459 584.377 418.909 C 581.861 424.695 578.052 433.202 577.167 434.767 C 576.827 435.448 575.263 438.375 573.767 441.232 C 572.27 444.091 570.298 447.699 569.414 449.196 C 568.53 450.693 567.305 452.871 566.761 453.96 C 566.15 455.117 564.789 457.363 563.633 459.065 C 562.544 460.766 561.388 462.603 561.116 463.148 C 560.912 463.692 559.484 465.938 558.055 468.116 C 556.627 470.294 555.471 472.2 555.471 472.336 C 555.471 472.676 551.254 479.006 550.779 479.482 C 550.506 479.686 550.098 480.299 549.69 480.912 C 548.806 482.409 543.773 489.827 543.025 490.712 C 542.753 491.12 541.392 492.957 539.965 494.795 C 538.604 496.701 537.244 498.335 536.972 498.402 C 536.632 498.538 536.427 498.947 536.427 499.356 C 536.427 499.764 535.815 500.716 535.068 501.534 C 534.387 502.282 529.695 507.999 524.798 514.192 C 515.82 525.354 512.963 528.689 510.107 531.548 C 509.222 532.364 508.542 533.248 508.542 533.521 C 508.542 533.726 507.658 534.746 506.638 535.767 C 505.618 536.856 501.333 541.348 497.184 545.839 C 484.125 559.996 470.727 573.268 454.948 587.696 C 451.411 590.895 447.399 594.639 445.97 596.067 C 444.542 597.429 443.249 598.585 443.046 598.585 C 442.91 598.585 440.801 600.423 438.421 602.669 C 433.932 606.821 433.048 607.365 433.048 605.936 Z"
          fill="#F89B1F" fill-rule="evenodd" transform="matrix(1, 0, 0, 1, -277.4961853027343, -180.40364074707026)"/>
    <path d="M 509.695 350.664 C 501.234 348.828 494.888 345.293 488.065 338.629 C 484.311 334.957 481.923 332.033 479.876 328.565 C 478.238 325.777 475.031 318.978 474.69 317.685 C 474.485 316.938 473.803 314.966 473.12 313.266 C 472.165 310.818 471.96 308.03 471.96 299.327 C 471.96 289.195 472.028 288.107 473.735 283.824 C 478.306 272.196 485.948 265.193 496.935 262.609 C 502.394 261.317 505.943 261.317 511.606 262.677 C 517.406 264.037 522.456 266.416 528.324 270.632 C 532.282 273.488 534.329 275.596 540.402 283.144 C 541.835 284.843 546.817 295.383 547.294 297.627 C 547.568 298.919 548.318 301.843 548.863 304.086 C 550.433 310.07 550.297 320.202 548.591 325.913 C 546.953 331.216 544.155 337.268 542.722 338.492 C 542.176 338.9 541.767 339.512 541.767 339.853 C 541.767 340.397 539.992 342.164 536.513 345.225 C 534.602 346.856 529.553 349.372 526.141 350.324 C 520.545 351.955 515.905 352.092 509.695 350.664 Z"
          fill="#F89B1F" fill-rule="evenodd" transform="matrix(1, 0, 0, 1, -277.4961853027343, -180.40364074707026)"/>
</svg>