<svg xmlns="http://www.w3.org/2000/svg" width="1168" height="543">
    <defs>
        <clipPath id="clip0">
            <rect x="-15" y="160" width="1168" height="543"></rect>
        </clipPath>
    </defs>
    <g clip-path="url(#clip0)" transform="translate(15 -160)">
        <text fill="#0490EE" font-family="Bahnschrift,Bahnschrift_MSFontService,sans-serif" font-weight="400"
              font-size="87" transform="translate(38.1174 632)">eHealth anytime, anywhere
        </text>
        <path d="M974.191 517.643C970.455 516.962 966.378 515.941 965.155 515.329 963.933 514.784 962.438 514.308 961.894 514.308 961.284 514.308 959.992 513.831 959.042 513.287 958.023 512.742 956.12 511.857 954.829 511.244 953.539 510.7 951.229 509.475 949.734 508.522 948.24 507.637 946.541 506.685 945.93 506.412 944.435 505.867 934.109 495.113 932.818 492.731 930.372 488.103 928.131 483.066 927.247 479.935 925.005 471.971 924.87 469.861 925.073 455.636 925.346 440.458 925.617 438.62 929.218 430.248 931.052 425.96 934.449 420.379 935.196 420.379 935.536 420.379 935.807 420.039 935.807 419.631 935.807 417.52 946.201 409.965 955.169 405.54 966.107 400.095 983.701 395.195 992.058 395.195 993.893 395.195 996.745 394.718 998.376 394.174 1000.01 393.561 1004.08 392.813 1007.48 392.472 1010.81 392.132 1015.15 391.383 1016.99 390.771 1018.89 390.227 1021.07 389.75 1021.81 389.75 1023.51 389.75 1032.48 385.803 1032.82 384.917 1032.95 384.577 1033.36 384.305 1033.77 384.305 1035.13 384.305 1038.32 380.357 1039.28 377.362 1040.36 374.3 1040.16 371.985 1038.53 367.902 1037.71 365.927 1033.16 361.844 1031.73 361.844 1031.25 361.844 1030.04 361.435 1029.01 360.89 1026.23 359.461 1014.34 357.556 1008.15 357.556 1001.3 357.556 993.552 358.917 989.136 360.89 985.672 362.457 980.916 367.016 980.509 369.126 980.305 370.283 978.471 370.352 954.965 370.556L929.625 370.692 930.033 366.813C930.848 359.393 937.573 344.488 940.902 342.582 941.446 342.31 941.921 341.765 941.921 341.492 941.921 340.132 952.316 330.602 957.207 327.471 965.088 322.434 977.995 318.283 990.155 316.853 1008.7 314.607 1037.92 316.989 1050.28 321.754 1052.18 322.434 1053.94 323.047 1054.22 323.047 1054.83 323.047 1062.5 326.722 1064.54 328.016 1069.64 331.215 1072.09 333.053 1075.83 336.728 1078.2 339.043 1080.45 341.492 1080.85 342.173 1081.18 342.854 1082.41 344.828 1083.49 346.666 1084.52 348.435 1085.67 350.885 1086.02 351.975 1086.28 353.132 1087.1 355.378 1087.78 357.079 1088.93 359.938 1089.01 363.273 1089.01 407.107 1088.93 449.987 1088.86 454.547 1087.71 459.176 1087.03 461.966 1086.28 465.505 1085.95 467.003 1085.4 470.202 1083.16 476.055 1081.05 479.935 1076.98 487.558 1067.67 498.176 1061.42 502.397 1059.79 503.486 1058.29 504.575 1058.09 504.846 1057.41 505.596 1046.13 510.836 1042.12 512.265 1025.75 518.119 991.242 520.842 974.191 517.643ZM1012.71 476.6C1015.43 475.647 1018.76 474.354 1020.12 473.673 1023.64 471.768 1030.24 466.459 1030.24 465.505 1030.24 465.029 1030.51 464.621 1030.85 464.621 1031.53 464.621 1035.67 458.836 1035.67 457.814 1035.67 457.542 1036.29 456.113 1036.97 454.615 1039.41 449.646 1040.56 442.364 1040.97 429.704L1041.31 417.52 1038.66 418.95C1037.24 419.766 1035.67 420.379 1035.26 420.379 1034.86 420.379 1033.5 420.855 1032.27 421.468 1031.05 422.08 1029.15 422.83 1027.93 423.101 1026.77 423.374 1024.46 424.122 1022.76 424.667 1017.81 426.437 1009.65 428.546 1008.02 428.546 1004.28 428.546 989.884 432.631 985.74 434.877 984.993 435.285 983.566 436.033 982.546 436.578 981.46 437.055 980.645 437.735 980.645 438.076 980.645 438.416 980.101 438.824 979.49 439.029 978.267 439.437 975.278 445.155 973.919 449.579 972.764 453.254 973.036 459.856 974.53 464.348 976.297 469.589 979.897 473.537 985.129 476.124 988.933 478.097 989.545 478.165 998.444 478.165 1006.59 478.234 1008.43 478.029 1012.71 476.6Z"
              fill="#199CF1" fillRule="evenodd"></path>
        <path d="M805.592 517.941C794.179 516.175 776.176 510.269 772.576 507.146 772.032 506.603 771.285 506.195 771.013 506.195 769.858 506.195 763.947 501.578 760.347 497.98 756.135 493.703 749.002 483.722 747.779 480.395 747.576 479.852 747.099 478.766 746.692 478.02 743.906 472.995 740.17 462.812 739.287 457.99 739.015 456.294 738.404 453.849 737.996 452.559 736.434 447.399 735.007 432.259 735.007 419.631 734.94 398.041 737.317 383.987 744.247 364.977 744.722 363.619 745.673 361.718 746.353 360.7 746.964 359.749 747.508 358.459 747.508 357.984 747.508 357.441 747.983 356.626 748.526 356.151 749.07 355.743 749.682 354.657 749.953 353.91 750.428 352.348 750.7 351.941 756.95 343.929 761.57 337.887 767.48 331.709 768.499 331.709 768.907 331.709 769.247 331.437 769.247 331.098 769.247 330.759 770.945 329.468 773.051 328.246 775.157 326.956 777.195 325.598 777.602 325.191 778.962 324.037 784.192 321.728 789.627 319.896 799.75 316.569 812.589 315.618 824.274 317.383 832.902 318.673 844.043 322.407 847.1 325.055 847.848 325.734 848.799 326.277 849.207 326.277 850.429 326.277 862.726 338.295 864.968 341.69L867.074 344.812 867.074 303.94 867.074 263 882.562 263.34C895.674 263.611 898.46 263.815 901.041 264.902 907.155 267.481 911.911 271.826 915.172 277.733L917.006 281.128 917.006 365.316 917.006 449.504 915.376 456.633C914.492 460.571 912.998 466.002 912.115 468.786 910.28 474.285 905.593 483.722 903.622 485.827 902.944 486.506 902.4 487.456 902.4 487.796 902.4 488.203 901.789 488.815 901.041 489.222 900.294 489.629 899.683 490.24 899.683 490.579 899.683 491.394 896.693 494.314 895.335 494.857 894.723 495.128 894.248 495.604 894.248 495.944 894.248 496.487 888.541 500.764 887.794 500.764 887.658 500.764 886.503 501.442 885.28 502.325 883.242 503.615 876.109 507.282 870.13 509.997 866.938 511.423 860.144 513.731 857.562 514.275 856.272 514.614 853.487 515.293 851.448 515.904 840.919 518.959 818.364 519.977 805.592 517.941ZM838.881 473.742C847.848 470.687 853.283 466.274 858.785 457.651 860.891 454.256 863.269 447.739 865.103 440.338 866.53 434.5 866.665 432.395 866.665 417.933 866.598 402.929 866.53 401.571 864.9 395.528 863.881 391.93 862.59 387.789 861.91 386.363 859.6 380.999 857.903 377.808 856.748 376.518 856.068 375.772 855.524 375.025 855.524 374.754 855.524 373.87 848.459 367.761 846.557 366.945 845.47 366.538 844.655 365.927 844.655 365.588 844.655 365.248 844.179 364.977 843.636 364.977 843.024 364.977 841.598 364.502 840.443 363.891 839.22 363.279 835.348 362.396 831.815 361.853 818.772 360.021 808.921 363.143 800.361 371.834 797.847 374.345 795.198 377.604 794.382 379.031 793.636 380.456 792.752 382.086 792.344 382.629 792.005 383.172 791.257 384.733 790.714 386.024 789.763 388.196 789.152 390.233 786.706 399.263 786.298 400.825 786.027 408.7 786.027 417.933 786.095 431.919 786.23 434.568 787.521 439.252 788.269 442.239 788.947 445.023 788.947 445.498 788.947 446.041 790.239 449.097 791.801 452.356 797.847 465.051 805.592 471.569 819.179 475.168 822.372 476.05 834.872 475.168 838.881 473.742Z"
              fill="#199CF1" fill-rule="evenodd"></path>
        <path d="M570.094 555.288C570.094 554.812 570.774 553.315 571.59 552.021 572.406 550.728 573.631 548.755 574.31 547.597 576.351 544.126 587.097 522.212 587.097 521.463 587.097 521.054 587.709 519.693 588.457 518.332 589.205 516.97 589.818 515.61 589.818 515.202 589.818 514.793 590.294 513.5 590.838 512.343 592.13 509.484 593.831 504.788 594.919 500.977 595.395 499.276 596.211 496.69 596.823 495.191 601.039 483.758 605.733 462.047 607.501 445.849 608.998 432.713 609.133 412.228 607.909 399.705 606.413 385.208 602.4 364.45 599.816 358.052 599.475 357.1 598.591 354.514 597.911 352.268 596.483 347.299 594.851 342.807 593.558 339.881 593.014 338.724 592.538 337.43 592.538 337.022 592.538 336.614 591.858 334.981 591.11 333.415 590.294 331.781 589.069 329.127 588.253 327.425 587.505 325.725 586.689 323.887 586.417 323.342 586.145 322.798 585.533 321.573 585.057 320.62 584.581 319.667 583.832 318.306 583.493 317.558 581.248 313.134 577.984 307.213 577.303 306.327 576.827 305.783 576.079 304.49 575.535 303.469 575.059 302.38 574.378 301.563 574.039 301.563 573.766 301.563 573.494 300.951 573.494 300.27 573.494 299.522 573.222 298.841 572.95 298.705 572.338 298.501 568.053 292.171 568.053 291.558 568.053 291.218 565.673 288.223 562.952 285.025 562.408 284.412 561.932 283.664 561.932 283.459 561.932 283.119 551.594 270.12 549.758 268.078 549.146 267.466 547.173 265.22 545.269 263.042 538.4 254.943 514.936 232.143 513.575 232.143 513.235 232.143 512.691 231.53 512.282 230.782 511.874 230.033 511.127 229.421 510.583 229.421 510.039 229.421 509.562 229.148 509.562 228.876 509.562 228.195 496.776 217.85 495.959 217.85 495.551 217.85 495.28 217.578 495.28 217.306 495.28 217.034 493.443 215.468 491.198 213.903 485.689 210.024 485.621 208.526 490.927 210.772 492.423 211.385 494.531 212.133 495.619 212.474 497.864 213.018 505.006 215.536 507.182 216.489 507.929 216.761 510.854 218.055 513.643 219.212 521.397 222.546 525.953 224.656 528.47 225.95 529.082 226.358 531.326 227.447 533.367 228.468 535.407 229.421 538.672 231.122 540.509 232.143 542.412 233.232 544.861 234.593 545.95 235.137 547.105 235.75 549.078 236.907 550.37 237.724 551.662 238.472 553.363 239.493 554.111 239.902 557.376 241.739 561.592 244.666 561.796 245.142 561.932 245.482 562.273 245.755 562.612 245.755 563.225 245.755 571.862 251.268 573.426 252.629 573.971 253.105 575.943 254.534 577.847 255.827 579.751 257.188 581.588 258.618 581.86 259.163 582.132 259.639 582.812 260.047 583.357 260.047 583.832 260.047 584.377 260.32 584.513 260.591 584.648 260.932 586.485 262.498 588.661 264.063 590.77 265.696 592.538 267.262 592.538 267.601 592.538 267.942 592.946 268.214 593.422 268.214 593.898 268.214 594.783 268.758 595.395 269.439 596.007 270.052 596.959 270.936 597.435 271.345 609.881 281.281 630.897 301.835 643.888 316.809 652.117 326.336 651.165 325.112 655.042 330.284 656.674 332.462 658.239 334.232 658.579 334.232 658.919 334.232 659.19 334.64 659.19 335.116 659.19 335.661 659.803 336.614 660.551 337.294 661.3 337.975 661.911 338.792 661.911 339.132 661.911 339.472 662.591 340.493 663.476 341.378L664.972 343.012 668.713 338.656C670.753 336.205 672.658 334.232 672.929 334.232 673.202 334.232 673.473 333.755 673.473 333.211 673.473 332.667 674.086 331.918 674.834 331.509 675.582 331.101 676.194 330.352 676.194 329.808 676.194 329.332 676.398 328.787 676.738 328.651 677.555 328.311 681.635 322.798 681.635 322.049 681.635 321.709 682.043 321.096 682.52 320.824 682.996 320.552 684.424 318.578 685.716 316.536 687.008 314.494 688.232 312.657 688.505 312.453 688.708 312.248 689.457 311.228 690.069 310.07 690.681 308.981 691.837 306.94 692.653 305.646 696.53 299.249 706.8 279.035 706.8 277.811 706.8 277.402 707.412 276.109 708.16 274.884 708.908 273.659 709.521 272.23 709.521 271.754 709.521 271.209 709.928 269.848 710.472 268.69 711.493 266.444 713.737 259.707 716.186 251.54 721.627 233.504 724.483 213.359 724.483 193.689 724.483 184.978 722.784 161.77 722.035 160.613 721.831 160.272 721.967 160 722.307 160 722.647 160 723.328 160.817 723.804 161.906 725.095 164.628 730.672 180.35 731.285 183.14 731.556 184.433 732.305 186.884 732.849 188.585 738.29 205.055 742.371 228.059 743.595 249.498 745.159 275.905 742.235 303.333 735.298 328.447 732.033 340.289 730.401 345.326 727.203 353.493 726.456 355.466 725.844 357.371 725.844 357.849 725.844 358.257 725.231 359.754 724.551 361.251 723.872 362.681 722.443 365.811 721.423 368.261 718.907 374.047 715.098 382.554 714.213 384.119 713.873 384.8 712.309 387.727 710.813 390.584 709.316 393.443 707.344 397.051 706.46 398.548 705.576 400.045 704.351 402.223 703.807 403.312 703.196 404.469 701.835 406.715 700.679 408.417 699.59 410.118 698.434 411.955 698.162 412.5 697.958 413.044 696.53 415.29 695.101 417.468 693.673 419.646 692.517 421.552 692.517 421.688 692.517 422.028 688.3 428.358 687.825 428.834 687.552 429.038 687.144 429.651 686.736 430.264 685.852 431.761 680.819 439.179 680.071 440.064 679.799 440.472 678.438 442.309 677.011 444.147 675.65 446.053 674.29 447.687 674.018 447.754 673.678 447.89 673.473 448.299 673.473 448.708 673.473 449.116 672.861 450.068 672.114 450.886 671.433 451.634 666.741 457.351 661.844 463.544 652.866 474.706 650.009 478.041 647.153 480.9 646.268 481.716 645.588 482.6 645.588 482.873 645.588 483.078 644.704 484.098 643.684 485.119 642.664 486.208 638.379 490.7 634.23 495.191 621.171 509.348 607.773 522.62 591.994 537.048 588.457 540.247 584.445 543.991 583.016 545.419 581.588 546.781 580.295 547.937 580.092 547.937 579.956 547.937 577.847 549.775 575.467 552.021 570.978 556.173 570.094 556.717 570.094 555.288Z"
              fill="#F89B1F" fill-rule="evenodd"></path>
        <path d="M646.741 300.016C638.28 298.18 631.934 294.645 625.111 287.981 621.357 284.309 618.969 281.385 616.922 277.917 615.284 275.129 612.077 268.33 611.736 267.037 611.531 266.29 610.849 264.318 610.166 262.618 609.211 260.17 609.006 257.382 609.006 248.679 609.006 238.547 609.074 237.459 610.781 233.176 615.352 221.548 622.994 214.545 633.981 211.961 639.44 210.669 642.989 210.669 648.652 212.029 654.452 213.389 659.502 215.768 665.37 219.984 669.328 222.84 671.375 224.948 677.448 232.496 678.881 234.195 683.863 244.735 684.34 246.979 684.614 248.271 685.364 251.195 685.909 253.438 687.479 259.422 687.343 269.554 685.637 275.265 683.999 280.568 681.201 286.62 679.768 287.844 679.222 288.252 678.813 288.864 678.813 289.205 678.813 289.749 677.038 291.516 673.559 294.577 671.648 296.208 666.599 298.724 663.187 299.676 657.591 301.307 652.951 301.444 646.741 300.016Z"
              fill="#F89B1F" fill-rule="evenodd"></path>
        <path d="M455.364 512.491C454.211 509.846 448.916 494.652 448.238 492.278 448.034 491.533 447.423 489.837 446.812 488.548 446.268 487.26 445.522 485.292 445.25 484.139 444.979 483.054 443.825 479.527 442.603 476.339 441.449 473.152 440.227 469.692 439.888 468.539 439.549 467.454 438.327 463.927 437.173 460.738 436.019 457.551 434.797 454.092 434.457 452.939 434.186 451.854 432.964 448.326 431.742 445.138 430.52 441.951 429.095 437.881 428.552 435.982 427.941 434.15 427.262 432.251 426.923 431.913 426.651 431.505 426.108 429.945 425.701 428.521 425.362 427.029 424.072 423.231 422.918 420.042 421.696 416.854 420.542 413.328 420.27 412.242 419.999 411.089 419.388 409.461 418.913 408.58 418.437 407.766 417.623 405.595 417.148 403.899 416.673 402.136 414.976 397.185 413.415 392.911 411.854 388.638 410.156 383.686 409.681 381.924 409.138 380.16 408.323 377.718 407.78 376.498 407.237 375.276 406.626 373.649 406.423 372.902 406.219 372.157 405.133 368.969 403.911 365.78 402.757 362.592 401.4 358.659 400.857 356.963 399.974 353.91 399.092 351.537 395.086 340.685 393.933 337.497 392.711 334.037 392.371 332.884 392.032 331.799 391.15 329.154 390.403 327.119 387.892 320.404 385.244 321.015 416.401 321.015L443.757 321.015 444.571 324.27C445.046 326.034 445.997 329.493 446.744 332.071 449.12 340.413 451.835 350.044 454.957 361.372 455.704 364.017 456.858 368.086 457.536 370.529 458.215 372.97 459.438 377.379 460.252 380.364 462.492 388.638 465.207 397.998 469.008 410.885 469.823 413.531 470.434 415.973 470.434 416.312 470.434 416.719 471.045 418.957 471.724 421.399 472.471 423.84 473.693 428.114 474.507 430.894 475.254 433.675 476.476 437.881 477.222 440.187 477.969 442.493 478.58 444.935 478.58 445.613 478.58 446.834 480.684 452.871 481.363 453.549 481.634 453.82 482.245 451.922 485.436 440.933 486.794 436.321 488.355 430.962 490.73 422.755 491.409 420.314 492.699 415.905 493.513 412.921 495.21 406.952 496.569 402.271 499.148 393.59 500.098 390.402 501.523 385.722 502.27 383.077 503.017 380.499 504.238 376.362 504.917 373.919 505.664 371.478 506.886 367.069 507.769 364.085 510.145 355.47 511.909 349.435 513.267 345.364 514.013 343.262 514.556 341.023 514.556 340.413 514.556 339.802 515.167 337.972 515.914 336.479 516.661 334.919 517.271 333.427 517.271 333.088 517.271 330.986 524.739 324.27 529.083 322.507 532.817 321.082 533.699 321.015 554.945 321.015 571.441 321.015 577.006 321.218 577.006 321.828 577.006 322.913 575.717 326.915 574.427 329.832 573.884 331.12 573.205 333.156 572.934 334.241 572.391 336.208 568.318 347.603 563.973 359.337 562.887 362.322 561.734 365.713 561.394 366.798 561.055 367.951 559.833 371.41 558.679 374.598 557.525 377.786 556.303 381.313 555.963 382.398 555.692 383.552 554.741 386.265 553.927 388.503 549.719 399.83 548.361 403.628 547.818 405.459 547.479 406.612 546.257 410.072 545.103 413.26 543.948 416.447 542.727 419.975 542.387 421.06 542.116 422.212 541.165 424.925 540.351 427.164 536.007 438.899 534.785 442.289 534.31 444.121 533.971 445.274 533.088 447.648 532.274 449.411 531.526 451.243 530.847 453.075 530.847 453.549 530.847 454.024 530.372 455.38 529.829 456.533 529.218 457.686 528.336 460.061 527.861 461.892 526.979 464.808 525.621 468.743 519.579 485.496 518.629 488.141 517.679 490.854 517.475 491.601 517.271 492.346 516.661 493.974 516.118 495.195 515.575 496.416 514.76 498.858 514.217 500.621 513.742 502.385 512.452 506.251 511.366 509.235L509.398 514.661 482.924 514.865 456.45 515 455.364 512.491Z"
              fill="#5BC0FC" fill-rule="evenodd"></path>
        <path d="M295.142 515.061C286.457 514.245 278.18 512.544 273.159 510.57 271.327 509.822 269.495 509.278 269.088 509.278 268.07 509.278 257.079 503.631 254.297 501.658 250.972 499.276 240.862 489.343 240.862 488.39 240.862 487.914 240.455 487.302 239.98 487.03 239.031 486.486 236.453 481.723 234.484 476.96 231.974 470.905 230.006 460.768 230.006 454.032L230.006 447.364 255.111 447.364 280.215 447.364 280.622 449.27C282.861 459.679 284.015 462.264 288.696 466.755 292.089 470.089 296.974 472.538 303.963 474.511 308.102 475.667 310.951 475.94 319.025 475.94 327.778 475.94 329.678 475.735 334.088 474.307 342.433 471.586 347.387 467.639 349.219 462.469 351.05 457.094 350.101 453.351 345.758 449.201 343.18 446.752 335.852 442.602 334.156 442.602 333.681 442.602 331.985 442.057 330.357 441.31 328.728 440.629 323.571 439.404 318.89 438.588 314.208 437.703 308.305 436.478 305.659 435.73 303.081 435.05 298.467 433.825 295.482 433.077 278.723 428.723 271.735 426.001 256.807 418.245 254.161 416.816 242.016 404.706 240.795 402.12 240.184 401.032 239.438 399.466 239.031 398.718 235.163 391.642 233.535 380.144 234.756 368.918 235.57 361.298 237.062 355.855 239.776 350.072 242.084 345.241 245.001 340.547 245.68 340.547 246.019 340.547 246.29 340.071 246.29 339.527 246.29 338.982 246.901 338.165 247.648 337.689 248.394 337.213 249.004 336.532 249.004 336.261 249.004 335.444 252.804 331.702 253.618 331.702 253.957 331.702 254.432 331.294 254.636 330.818 255.111 329.593 262.099 324.898 268.41 321.632 272.684 319.388 284.965 315.373 287.34 315.373 288.085 315.373 291.003 314.829 293.785 314.216 301.317 312.584 322.69 312.584 333.478 314.285 347.929 316.53 360.075 320.952 369.438 327.279 372.898 329.661 381.99 338.029 381.99 338.846 381.99 339.049 383.075 340.615 384.433 342.383 387.147 345.99 392.1 356.059 392.914 359.597 393.185 360.889 393.864 363.679 394.474 365.72 395.085 367.762 395.56 371.504 395.56 374.089L395.56 378.648 377.783 378.648C363.468 378.579 359.396 378.375 357.225 377.559 355.732 377.015 353.9 376.334 353.221 376.13 352.476 375.858 351.254 375.246 350.507 374.633 348.404 373 343.316 367.557 343.316 366.877 343.316 366.061 336.734 359.597 335.852 359.597 335.513 359.597 335.174 359.325 335.174 358.985 335.174 358.644 332.799 357.42 329.881 356.331 325.81 354.699 323.097 354.154 317.533 353.814 309.188 353.337 299.62 354.154 296.499 355.787 295.278 356.4 293.921 356.876 293.514 356.876 292.089 356.876 288.493 360.618 287 363.679 285.033 367.489 284.829 371.775 286.525 373.613 289.647 377.015 292.157 379.327 292.768 379.327 293.175 379.327 294.192 379.94 295.142 380.688 296.093 381.437 297.313 382.049 297.857 382.049 298.399 382.049 300.095 382.661 301.588 383.41 303.081 384.159 304.777 384.703 305.388 384.77 305.998 384.77 307.626 385.247 309.052 385.792 310.408 386.403 312.783 387.152 314.344 387.424 315.904 387.764 321.332 389.125 326.421 390.486 331.509 391.846 336.531 392.935 337.616 392.935 338.702 392.935 341.416 393.479 343.655 394.228 345.894 394.908 349.762 396.133 352.272 396.949 354.783 397.698 357.157 398.377 357.564 398.377 357.972 398.377 359.6 398.99 361.092 399.739 362.653 400.487 364.349 401.099 364.892 401.099 365.435 401.099 366.656 401.508 367.606 402.052 368.624 402.596 371.609 404.025 374.188 405.25 383.89 409.808 392.1 416.816 395.493 423.416 395.967 424.436 396.781 425.729 397.256 426.273 397.799 426.817 399.02 429.743 400.106 432.736 401.938 437.976 402.006 438.655 402.006 451.107 401.938 462.672 401.802 464.578 400.378 469.136 398.952 473.763 395.899 480.634 393.456 484.717 391.217 488.39 381.923 498.392 380.633 498.392 380.294 498.392 379.751 498.8 379.48 499.276 377.987 501.658 366.249 507.577 357.836 510.162 341.009 515.469 317.126 517.306 295.142 515.061Z"
              fill="#F89B1F" fill-rule="evenodd"></path>
        <path d="M113.952 515.14C102.619 513.781 91.014 509.767 81.6487 503.986 75.2695 500.04 63.393 489.429 63.393 487.593 63.393 487.252 63.1215 486.912 62.7823 486.912 62.2394 486.912 57.7603 480.79 54.0277 475.009 50.2273 469.023 44.4588 452.562 43.4409 444.739 43.2373 443.04 42.6265 439.23 42.0158 436.237 40.6584 428.551 40.6584 398.894 42.0836 391.344 42.6265 388.351 43.373 384.134 43.7124 381.889 44.391 377.604 45.9518 372.299 48.8701 364.34 50.6345 359.51 55.1815 350.804 57.0138 348.763 57.5568 348.219 57.964 347.471 57.964 347.267 57.964 346.79 58.0318 346.655 63.3253 340.26 66.0398 336.86 72.4869 330.942 76.6267 327.881 82.0559 323.935 91.2176 319.515 98.5469 317.27 116.803 311.692 140.216 311.556 159.761 316.998 167.565 319.174 176.455 323.256 184.735 328.629 186.296 329.65 187.585 330.806 187.585 331.146 187.585 331.554 187.924 331.826 188.332 331.826 189.282 331.826 199.123 341.689 199.123 342.641 199.123 343.049 199.326 343.39 199.666 343.39 199.937 343.39 200.886 344.614 201.837 346.111 202.787 347.607 203.737 348.831 204.009 348.831 204.348 348.831 204.552 349.444 204.552 350.191 204.552 350.94 204.755 351.552 205.095 351.552 205.57 351.552 208.08 356.177 210.795 362.436 214.392 370.462 217.582 383.385 218.803 394.405 219.956 405.015 220.431 424.946 219.55 427.259L218.803 429.095 156.367 429.095 93.9322 429.095 93.9322 433.04C93.9322 437.462 96.5789 448.14 98.7505 452.835 100.854 457.255 104.655 461.881 109.812 466.302 111.441 467.662 117.753 470.383 121.417 471.268 130.511 473.444 142.659 472.491 149.038 469.159 150.395 468.479 152.024 467.867 152.567 467.867 153.518 467.867 156.028 465.486 163.765 457.459 168.787 452.154 169.805 451.95 194.982 451.678L216.971 451.474 216.496 453.038C216.224 453.923 215.885 455.555 215.681 456.644 214.867 460.792 208.148 476.165 205.909 478.954 205.57 479.43 203.873 481.607 202.108 483.852 198.308 488.681 191.997 495.075 190.979 495.075 190.639 495.075 190.3 495.346 190.3 495.687 190.3 496.435 183.853 501.197 182.835 501.197 182.427 501.197 182.156 501.468 182.156 501.809 182.156 502.149 180.934 502.965 179.442 503.645 177.949 504.325 176.727 505.074 176.727 505.346 176.727 505.618 176.048 506.094 175.234 506.298 174.351 506.57 172.452 507.318 170.959 507.998 166.276 510.107 160.982 512.08 159.965 512.08 159.422 512.08 156.91 512.692 154.467 513.372 145.102 516.024 127.525 516.773 113.952 515.14ZM166.073 391.548C165.733 387.126 163.493 378.896 161.321 374.203 159.422 370.054 154.467 364.34 150.735 361.96 149.309 361.075 145.849 359.578 143.066 358.626 136.008 356.313 124.743 356.313 117.956 358.558 113.07 360.123 108.252 362.707 107.302 364.272 107.03 364.747 106.419 365.156 105.944 365.156 104.994 365.225 100.379 371.074 98.4791 374.611 96.5789 378.284 93.9322 388.146 93.9322 391.82L93.9322 395.085 130.172 395.085 166.344 395.085 166.073 391.548Z"
              fill="#F89B1F" fill-rule="evenodd"></path>
    </g>
</svg>